mtllib board.mtl
o board

# x thickness ±0.0025, y width ±0.025, z 0..0.15
v -0.0025 -0.025 0.000
v -0.0025  0.025 0.000
v -0.0025  0.025 0.150
v -0.0025 -0.025 0.150
v  0.0025 -0.025 0.000
v  0.0025  0.025 0.000
v  0.0025  0.025 0.150
v  0.0025 -0.025 0.150

vt 0 0
vt 1 0
vt 1 1
vt 0 1

vn -1 0 0
vn 1 0 0
vn 0 -1 0
vn 0 1 0
vn 0 0 -1
vn 0 0 1

# Front face (-X): textured person on white rectangular board
usemtl frontmat
f 1/1/1 3/3/1 2/2/1
f 1/1/1 4/4/1 3/3/1

# Back face (+X): plain white
usemtl whitemat
f 5//2 6//2 7//2
f 5//2 7//2 8//2

# Side faces: plain white
f 1//3 5//3 8//3
f 1//3 8//3 4//3
f 2//4 3//4 7//4
f 2//4 7//4 6//4
f 1//5 2//5 6//5
f 1//5 6//5 5//5
f 4//6 8//6 7//6
f 4//6 7//6 3//6
